<svg xmlns="http://www.w3.org/2000/svg" width="362" height="184" viewBox="0 0 362 184" fill="none">
  <path d="M174 85L242 143" stroke="#AC5B2D" stroke-width="25"/>
  <path d="M228 59L296 117" stroke="#AC5B2D" stroke-width="25"/>
  <ellipse cx="124" cy="68.5" rx="122" ry="68.5" fill="#AC5B2D"/>
  <path d="M161.436 109.5C-16.16 196.352 17.7938 57.3426 17.7938 57.3426" stroke="#9C4B1D" stroke-width="30"/>
  <path d="M161.436 119.519C-16.1599 206.371 17.7938 67.3611 17.7938 67.3611" stroke="#AC5B2D" stroke-width="30"/>
  <ellipse cx="190" cy="88.5" rx="59" ry="52.5" fill="#9C4B1D"/>
  <ellipse cx="192.5" cy="92" rx="56.5" ry="48" fill="#AC5B2D"/>
  <path d="M139.366 68.8051L144.557 22L181.289 47.3546L139.366 68.8051Z" fill="#944619"/>
  <path d="M231.366 123.805L236.557 77L273.289 102.355L231.366 123.805Z" fill="#944619"/>
  <path d="M232.048 116.351L234.34 83.3024L262.136 102.489L232.048 116.351Z" fill="#AC5B2D"/>
  <path d="M146.048 64.3506L148.34 31.3024L176.136 50.489L146.048 64.3506Z" fill="#AC5B2D"/>
  <g filter="url(#filter0_d_108_60)">
    <path d="M165.443 118.024C164.641 113.475 169.064 109.764 173.404 111.344L178.287 113.121C182.627 114.701 183.63 120.387 180.091 123.355L176.111 126.695C172.573 129.664 167.147 127.69 166.345 123.141L165.443 118.024Z" fill="#0E0E0E"/>
  </g>
  <circle cx="244" cy="146" r="12" fill="#AC5B2D"/>
  <circle cx="296" cy="117" r="12" fill="#AC5B2D"/>
  <path d="M149 84C165.135 98.4888 172.39 90.037 174 84" stroke="black" stroke-width="2"/>
  <g filter="url(#filter1_d_108_60)">
    <path d="M218.055 116.747C196.584 113.7 198.396 102.71 201.985 97.5962" stroke="black" stroke-width="2"/>
  </g>
  <g filter="url(#filter2_d_108_60)">
    <path d="M185.958 138.098C167.224 138.312 170.266 128.789 174.128 124" stroke="black" stroke-width="2"/>
  </g>
  <g filter="url(#filter3_d_108_60)">
    <path d="M153 125C164.878 139.489 170.218 131.037 171.404 125" stroke="black" stroke-width="2"/>
  </g>
  <ellipse cx="26" cy="60" rx="24" ry="16" fill="#AC5B2D"/>
  <path d="M183.463 124.179C220.457 146.704 231.018 149.322 231.675 147.816" stroke="#4B4444" stroke-width="2"/>
  <path d="M182.752 125.422C215.854 152.962 225.967 157.115 226.886 155.748" stroke="#4B4444" stroke-width="2"/>
  <path d="M182.509 128.241C212.555 158.702 222.224 163.81 223.303 162.557" stroke="#4B4444" stroke-width="2"/>
  <path d="M162.763 118.152C120.317 117.548 109.968 114.077 110.099 112.418" stroke="#4B4444" stroke-width="2"/>
  <path d="M162.801 119.613C121.396 125.459 110.723 123.56 110.562 121.879" stroke="#4B4444" stroke-width="2"/>
  <path d="M161.704 122.183C121.588 132.216 110.855 131.384 110.503 129.714" stroke="#4B4444" stroke-width="2"/>
  <path d="M138.726 97.3599C98.7865 86.6475 89.8084 80.7079 90.3118 79.0771" stroke="#4B4444" stroke-width="2"/>
  <path d="M265.726 143.36C225.786 132.648 216.808 126.708 217.312 125.077" stroke="#4B4444" stroke-width="2"/>
  <defs>
    <filter id="filter0_d_108_60" x="161.348" y="110.974" width="24.8883" height="25.1313" filterUnits="userSpaceOnUse" color-interpolation-filters="sRGB">
      <feFlood flood-opacity="0" result="BackgroundImageFix"/>
      <feColorMatrix in="SourceAlpha" type="matrix" values="0 0 0 0 0 0 0 0 0 0 0 0 0 0 0 0 0 0 127 0" result="hardAlpha"/>
      <feOffset dy="4"/>
      <feGaussianBlur stdDeviation="2"/>
      <feComposite in2="hardAlpha" operator="out"/>
      <feColorMatrix type="matrix" values="0 0 0 0 0 0 0 0 0 0 0 0 0 0 0 0 0 0 0.25 0"/>
      <feBlend mode="normal" in2="BackgroundImageFix" result="effect1_dropShadow_108_60"/>
      <feBlend mode="normal" in="SourceGraphic" in2="effect1_dropShadow_108_60" result="shape"/>
    </filter>
    <filter id="filter1_d_108_60" x="194.783" y="97.0218" width="27.4121" height="28.7157" filterUnits="userSpaceOnUse" color-interpolation-filters="sRGB">
      <feFlood flood-opacity="0" result="BackgroundImageFix"/>
      <feColorMatrix in="SourceAlpha" type="matrix" values="0 0 0 0 0 0 0 0 0 0 0 0 0 0 0 0 0 0 127 0" result="hardAlpha"/>
      <feOffset dy="4"/>
      <feGaussianBlur stdDeviation="2"/>
      <feComposite in2="hardAlpha" operator="out"/>
      <feColorMatrix type="matrix" values="0 0 0 0 0 0 0 0 0 0 0 0 0 0 0 0 0 0 0.25 0"/>
      <feBlend mode="normal" in2="BackgroundImageFix" result="effect1_dropShadow_108_60"/>
      <feBlend mode="normal" in="SourceGraphic" in2="effect1_dropShadow_108_60" result="shape"/>
    </filter>
    <filter id="filter2_d_108_60" x="166.227" y="123.372" width="23.743" height="23.7296" filterUnits="userSpaceOnUse" color-interpolation-filters="sRGB">
      <feFlood flood-opacity="0" result="BackgroundImageFix"/>
      <feColorMatrix in="SourceAlpha" type="matrix" values="0 0 0 0 0 0 0 0 0 0 0 0 0 0 0 0 0 0 127 0" result="hardAlpha"/>
      <feOffset dy="4"/>
      <feGaussianBlur stdDeviation="2"/>
      <feComposite in2="hardAlpha" operator="out"/>
      <feColorMatrix type="matrix" values="0 0 0 0 0 0 0 0 0 0 0 0 0 0 0 0 0 0 0.25 0"/>
      <feBlend mode="normal" in2="BackgroundImageFix" result="effect1_dropShadow_108_60"/>
      <feBlend mode="normal" in="SourceGraphic" in2="effect1_dropShadow_108_60" result="shape"/>
    </filter>
    <filter id="filter3_d_108_60" x="148.227" y="124.366" width="28.1584" height="17.6342" filterUnits="userSpaceOnUse" color-interpolation-filters="sRGB">
      <feFlood flood-opacity="0" result="BackgroundImageFix"/>
      <feColorMatrix in="SourceAlpha" type="matrix" values="0 0 0 0 0 0 0 0 0 0 0 0 0 0 0 0 0 0 127 0" result="hardAlpha"/>
      <feOffset dy="4"/>
      <feGaussianBlur stdDeviation="2"/>
      <feComposite in2="hardAlpha" operator="out"/>
      <feColorMatrix type="matrix" values="0 0 0 0 0 0 0 0 0 0 0 0 0 0 0 0 0 0 0.25 0"/>
      <feBlend mode="normal" in2="BackgroundImageFix" result="effect1_dropShadow_108_60"/>
      <feBlend mode="normal" in="SourceGraphic" in2="effect1_dropShadow_108_60" result="shape"/>
    </filter>
  </defs>
</svg>